<mxfile host="app.diagrams.net" modified="2024-02-01T15:30:42.091Z" agent="Mozilla/5.0 (Macintosh; Intel Mac OS X 10_15_7) AppleWebKit/605.1.15 (KHTML, like Gecko) Version/16.6 Safari/605.1.15" version="23.1.1" etag="SUOXXvIpqguke--FH_SJ" type="github">
  <diagram name="Page-1" id="zaIu_kfVNDtv0rfxWxYg">
    <mxGraphModel>
      <root>
        <mxCell id="0" />
        <mxCell id="1" parent="0" />
      </root>
    </mxGraphModel>
  </diagram>
</mxfile>
